<?xml version="1.0" encoding="utf-8"?>
<!-- Generator: Adobe Illustrator 23.1.1, SVG Export Plug-In . SVG Version: 6.00 Build 0)  -->
<svg version="1.1" id="Layer_1" xmlns="http://www.w3.org/2000/svg" xmlns:xlink="http://www.w3.org/1999/xlink" x="0px" y="0px"
	 viewBox="0 0 510 152" style="enable-background:new 0 0 510 152;" xml:space="preserve">
<style type="text/css">
	.st0{fill:#E86926;}
</style>
<g>
	<g>
		<path class="st0" d="M41.2,116.4c6,2.9,12.5,4.4,19.3,4.4c11.9,0,23.2-4.7,31.6-13.1c8.4-8.4,13-19.6,13.1-31.4c0,0,0,0,0,0
			c0,0,0-0.1,0-0.1c0,0,0-0.1,0-0.1c0,0,0-24.9,0-24.9C115.4,62.4,121,76.7,121,91.8c-0.1,16.1-6.3,31.2-17.7,42.5
			c-11.4,11.4-26.6,17.7-42.8,17.7c-6.7,0-13.2-1.1-19.3-3.1L41.2,116.4z"/>
		<path class="st0" d="M60.5,95.4c-5.2,0-10-2-13.7-5.7c-3.6-3.6-5.6-8.5-5.7-13.6c0-5.1,2-10,5.7-13.6C50.5,59,55.3,57,60.5,57
			c5.2,0,10,2,13.7,5.7c3.6,3.6,5.6,8.5,5.7,13.6c0,5.1-2,10-5.7,13.6C70.5,93.4,65.7,95.4,60.5,95.4"/>
		<path class="st0" d="M79.8,36c-6-2.9-12.5-4.4-19.3-4.4c-11.9,0-23.2,4.7-31.6,13.1c-8.4,8.4-13,19.6-13.1,31.4c0,0,0,0,0,0
			c0,0,0,0.1,0,0.1c0,0,0,0.1,0,0.1c0,0,0,24.9,0,24.9C5.6,90,0,75.7,0,60.6C0,44.5,6.3,29.4,17.7,18C29.1,6.6,44.3,0.3,60.5,0.3
			c6.7,0,13.2,1.1,19.3,3.1L79.8,36z"/>
		<path class="st0" d="M435.1,54.7c1.1,1.2,1.1,3.9,1.1,6.2v19.7c0,8.5-3.7,12.5-10.8,12.5c-6.6,0-10.2-2.8-10.2-11.3V60.8
			c0-2.3,0-5,1.1-6.2v-0.2h-8.7v0.2c1.1,1.2,1.1,3.9,1.1,6.2v19.7c0,4.6-0.1,8.9,3.3,12.6c2.9,3.1,7.4,4.5,11.7,4.5
			c14.1,0,17.3-7.8,17.3-17.1V60.8c0-2.3,0-5,1.1-6.2v-0.2h-6.8V54.7z M508.4,90.2l-3.8-29.3c-0.3-2.3-0.6-5,0.3-6.2v-0.2H495
			c0,1.4-0.2,3.2-1.5,6.9l-9.8,26.8l-10.5-26.9c-1.4-3.6-1.7-5.4-1.8-6.8h-9.9v0.2c0.9,1.2,0.6,3.9,0.3,6.2l-3.8,29.3
			c-0.3,2.3-0.6,5-1.9,6.2v0.2h6.8l0-0.2c-0.9-1.2-0.6-3.9-0.3-6.2l3.7-28.6l14,35.6c4.4-1.7,6-2.6,7.3-6l11-29.7l3.7,28.7
			c0.3,2.3,0.6,5-0.3,6.2v0.2h8.3v-0.2C509,95.2,508.7,92.5,508.4,90.2 M167.2,54.5h-14v0.2c1.1,1.2,1.1,3.9,1.1,6.2v29.3
			c0,2.3,0,5-1.1,6.2v0.2h13.7c14.4,0,24.2-8.8,24.2-21.4C191,62.4,181.9,54.5,167.2,54.5 M165.5,91.9h-4.7V59.1h5.8
			c10.8,0,17.1,5.6,17.1,16.8C183.7,86.9,175.1,91.9,165.5,91.9 M206.2,54.7c1.1,1.2,1.1,3.9,1.1,6.2v29.3c0,2.3,0,5-1.1,6.2v0.2
			h8.7v-0.2c-1.1-1.2-1.1-3.9-1.1-6.2V60.8c0-2.3,0-5,1.1-6.2v-0.2h-8.7V54.7z M265.3,89.8l-14.4-35.3h-7.6c0,1.7-0.5,3.3-1.4,5.6
			l-12,29.7c-1.7,4.2-2.5,5.5-4.1,6.5v0.2h7.8c0-1.3,0.2-3.2,1.6-6.8l11.4-29.8l11.7,29.8c1.4,3.5,1.6,5.4,1.7,6.8h9.6v-0.2
			C268.1,95.4,267,94,265.3,89.8 M304.4,61.4L293.9,89l-10.2-27.7c-1.4-3.6-1.6-5.4-1.7-6.8h-9.5v0.2c1.3,0.9,2.4,2.4,4.2,6.5
			l13.7,36.7c4.5-1.7,6.1-2.6,7.4-6l14.5-37.5h-6.1C306.1,55.8,305.8,57.7,304.4,61.4 M344.1,91.9h-12.8V76.4h7.2c2.3,0,5,0,6.2,1.1
			h0.2v-6.7h-0.2c-1.2,1-3.9,1-6.2,1h-7.2V58.9h11.4c2.3,0,5,0,6.2,1.1h0.2v-5.5h-25.5v0.2c1.1,1.2,1.1,3.9,1.1,6.2v29.3
			c0,2.3,0,5-1.1,6.2v0.2h26.2l0.7-6.4h-0.2C348.9,91.4,346.5,91.9,344.1,91.9 M392.6,90.2l-9.7-13.9c5.3-1.2,8.8-5.9,8.8-11.5
			c0-5.8-4.7-10.3-13.3-10.3H364v0.2c1.1,1.2,1.1,3.9,1.1,6.2v29.3c0,2.3,0,5-1.1,6.2v0.2h8.7v-0.2c-1.1-1.2-1.1-3.9-1.1-6.2V58.5
			h5.2c4.3,0,8.3,2.4,8.3,7c0,6-4.3,8.6-9.7,9.4l12.6,18.7c1.7,2.6,3.1,2.9,6.5,2.9h3.9v-0.2C396.8,95.5,395.2,93.8,392.6,90.2"/>
	</g>
</g>
</svg>
